# xmcd CD database file
# Copyright (C) 1996 Ti Kan
#
# Track frame offsets:
# 	187
# 	18222
# 	33630
# 	51195
# 	66275
# 	79202
# 	97175
# 	118492
# 	135132
#
# Disc length: 2064 seconds
#
# Revision: 1
# Processed by: cddbd v1.4b41PL1 Copyright (c) Steve Scherf et al.
# Submitted via: DiscPlay 3.3.1
#
DISCID=7a080e09
DTITLE=Vince Gill - I Never Knew Lonely
DYEAR=1900
DGENRE=
TTITLE0=I Never Knew Lonely
TTITLE1=What if I Say Goodbye
TTITLE2=The Way Back Home
TTITLE3=Livin' the Way I Do
TTITLE4=Everybody's Sweetheart
TTITLE5=True Love
TTITLE6=Losing Your Love
TTITLE7=Midnight Train
TTITLE8=Colder Than Winter
EXTD=
EXTT0=
EXTT1=
EXTT2=
EXTT3=
EXTT4=
EXTT5=
EXTT6=
EXTT7=
EXTT8=
PLAYORDER=
